<svg width="120" height="20" viewBox="0 0 120 20" fill="none" xmlns="http://www.w3.org/2000/svg">
<g clip-path="url(#clip0_517_1601)">
<path d="M16.2262 19.4299L10.0037 14.8566L3.78117 19.4299L6.17034 12.0441L-0.0488281 7.4999H7.6295L10.0037 0.101562L12.3778 7.4999H20.0553L13.837 12.0441L16.2262 19.4299ZM10.0037 12.7882L13.052 15.0291L11.8853 11.4091L14.9512 9.16656H11.162L10.0037 5.5574L8.84534 9.16656H5.05534L8.12451 11.4091L6.95784 15.0291L10.0037 12.7882Z" fill="#FFC700"/>
</g>
<g clip-path="url(#clip1_517_1601)">
<path d="M41.2262 19.4299L35.0037 14.8566L28.7812 19.4299L31.1703 12.0441L24.9512 7.4999H32.6295L35.0037 0.101562L37.3778 7.4999H45.0553L38.837 12.0441L41.2262 19.4299ZM35.0037 12.7882L38.052 15.0291L36.8853 11.4091L39.9512 9.16656H36.162L35.0037 5.5574L33.8453 9.16656H30.0553L33.1245 11.4091L31.9578 15.0291L35.0037 12.7882Z" fill="#FFC700"/>
</g>
<g clip-path="url(#clip2_517_1601)">
<path d="M66.2262 19.4299L60.0037 14.8566L53.7812 19.4299L56.1703 12.0441L49.9512 7.4999H57.6295L60.0037 0.101562L62.3778 7.4999H70.0553L63.837 12.0441L66.2262 19.4299ZM60.0037 12.7882L63.052 15.0291L61.8853 11.4091L64.9512 9.16656H61.162L60.0037 5.5574L58.8453 9.16656H55.0553L58.1245 11.4091L56.9578 15.0291L60.0037 12.7882Z" fill="#FFC700"/>
</g>
<g clip-path="url(#clip3_517_1601)">
<path d="M91.2262 19.4299L85.0037 14.8566L78.7812 19.4299L81.1703 12.0441L74.9512 7.4999H82.6295L85.0037 0.101562L87.3778 7.4999H95.0553L88.837 12.0441L91.2262 19.4299ZM85.0037 12.7882L88.052 15.0291L86.8853 11.4091L89.9512 9.16656H86.162L85.0037 5.5574L83.8453 9.16656H80.0553L83.1245 11.4091L81.9578 15.0291L85.0037 12.7882Z" fill="#FFC700"/>
</g>
<g clip-path="url(#clip4_517_1601)">
<path d="M116.226 19.4299L110.004 14.8566L103.781 19.4299L106.17 12.0441L99.9512 7.4999H107.63L110.004 0.101562L112.378 7.4999H120.055L113.837 12.0441L116.226 19.4299ZM110.004 12.7882L113.052 15.0291L111.885 11.4091L114.951 9.16656H111.162L110.004 5.5574L108.845 9.16656H105.055L108.125 11.4091L106.958 15.0291L110.004 12.7882Z" fill="#FFC700"/>
</g>
<defs>
<clipPath id="clip0_517_1601">
<rect width="20" height="20" fill="white" transform="translate(0.00390625)"/>
</clipPath>
<clipPath id="clip1_517_1601">
<rect width="20" height="20" fill="white" transform="translate(25.0039)"/>
</clipPath>
<clipPath id="clip2_517_1601">
<rect width="20" height="20" fill="white" transform="translate(50.0039)"/>
</clipPath>
<clipPath id="clip3_517_1601">
<rect width="20" height="20" fill="white" transform="translate(75.0039)"/>
</clipPath>
<clipPath id="clip4_517_1601">
<rect width="20" height="20" fill="white" transform="translate(100.004)"/>
</clipPath>
</defs>
</svg>
